<?xml version="1.0" standalone="no"?>
<!DOCTYPE svg PUBLIC "-//W3C//DTD SVG 20010904//EN"
 "http://www.w3.org/TR/2001/REC-SVG-20010904/DTD/svg10.dtd">
<svg version="1.0" xmlns="http://www.w3.org/2000/svg"
 width="512.000000pt" height="512.000000pt" viewBox="0 0 512.000000 512.000000"
 preserveAspectRatio="xMidYMid meet">

<g transform="translate(0.000000,512.000000) scale(0.100000,-0.100000)"
fill="#000000" stroke="none">
<path d="M0 4052 l0 -662 120 0 120 0 2 493 3 492 498 3 497 2 0 160 0 160
-432 0 c-238 0 -517 3 -620 7 l-188 6 0 -661z"/>
<path d="M4383 4703 l-493 -3 0 -160 0 -160 490 0 490 0 0 -495 0 -495 125 0
125 0 0 660 0 660 -122 -2 c-68 -2 -345 -4 -615 -5z"/>
<path d="M600 2565 l0 -1155 330 0 330 0 0 1155 0 1155 -330 0 -330 0 0 -1155z"/>
<path d="M1480 2860 l0 -860 95 0 95 0 0 860 0 860 -95 0 -95 0 0 -860z"/>
<path d="M1840 2860 l0 -860 35 0 35 0 0 860 0 860 -35 0 -35 0 0 -860z"/>
<path d="M2070 2860 l0 -860 250 0 250 0 0 860 0 860 -250 0 -250 0 0 -860z"/>
<path d="M2740 2860 l0 -860 85 0 85 0 0 860 0 860 -85 0 -85 0 0 -860z"/>
<path d="M3020 2860 l0 -860 30 0 30 0 0 860 0 860 -30 0 -30 0 0 -860z"/>
<path d="M3270 2860 l0 -860 45 0 45 0 0 860 0 860 -45 0 -45 0 0 -860z"/>
<path d="M3860 2565 l0 -1155 335 0 335 0 0 1155 0 1155 -335 0 -335 0 0
-1155z"/>
<path d="M3550 2845 l0 -866 78 3 77 3 0 860 0 860 -77 3 -78 3 0 -866z"/>
<path d="M1925 1749 c-74 -42 -51 -149 32 -149 95 0 106 133 13 154 -14 3 -34
1 -45 -5z"/>
<path d="M2724 1746 c-75 -33 -49 -146 33 -146 67 0 105 75 61 123 -30 33 -56
39 -94 23z"/>
<path d="M3534 1746 c-75 -33 -49 -146 33 -146 46 0 77 30 77 74 0 62 -53 96
-110 72z"/>
<path d="M1507 1738 c-38 -30 -38 -95 1 -124 45 -35 122 5 122 64 0 56 -78 94
-123 60z"/>
<path d="M2312 1733 c-51 -44 -17 -133 50 -133 36 0 78 40 78 73 0 13 -9 36
-21 51 -25 31 -76 35 -107 9z"/>
<path d="M3117 1738 c-38 -30 -38 -95 1 -124 45 -35 122 5 122 64 0 56 -78 94
-123 60z"/>
<path d="M0 1068 l0 -661 188 6 c103 4 379 7 615 7 l427 0 0 160 0 160 -490 0
-490 0 0 495 0 495 -125 0 -125 0 0 -662z"/>
<path d="M4878 1238 l-3 -493 -497 -3 -498 -2 0 -160 0 -160 433 0 c237 0 516
-3 620 -7 l187 -6 0 661 0 662 -120 0 -120 0 -2 -492z"/>
</g>
</svg>
